<?xml version="1.0" encoding="UTF-8" standalone="no"?>
<!-- Created with Inkscape (http://www.inkscape.org/) -->

<svg
   width="20in"
   height="12in"
   viewBox="0 0 508.00001 304.8"
   version="1.1"
   id="svg1"
   inkscape:version="1.2.2 (b0a8486, 2022-12-01)"
   sodipodi:docname="box with hole in the middle.svg"
   xmlns:inkscape="http://www.inkscape.org/namespaces/inkscape"
   xmlns:sodipodi="http://sodipodi.sourceforge.net/DTD/sodipodi-0.dtd"
   xmlns="http://www.w3.org/2000/svg"
   xmlns:svg="http://www.w3.org/2000/svg">
  <sodipodi:namedview
     id="namedview1"
     pagecolor="#ffffff"
     bordercolor="#000000"
     borderopacity="0.25"
     inkscape:showpageshadow="2"
     inkscape:pageopacity="0.0"
     inkscape:pagecheckerboard="0"
     inkscape:deskcolor="#d1d1d1"
     inkscape:document-units="in"
     showgrid="true"
     inkscape:zoom="1.3878658"
     inkscape:cx="326.04016"
     inkscape:cy="141.58429"
     inkscape:window-width="1384"
     inkscape:window-height="701"
     inkscape:window-x="0"
     inkscape:window-y="25"
     inkscape:window-maximized="0"
     inkscape:current-layer="layer1">
    <inkscape:grid
       id="grid1"
       units="in"
       originx="0"
       originy="0"
       spacingx="3.175"
       spacingy="3.175"
       empcolor="#e5bf00"
       empopacity="0.14901961"
       color="#e5bf00"
       opacity="0.10196078"
       empspacing="8"
       dotted="false"
       gridanglex="30"
       gridanglez="30"
       visible="true" />
  </sodipodi:namedview>
  <defs
     id="defs1" />
  <g
     inkscape:groupmode="layer"
     id="layer5"
     inkscape:label="ENGRAVE"
     inkscape:highlight-color="#3af335" />
  <g
     inkscape:groupmode="layer"
     id="layer6"
     inkscape:label="SCORE"
     inkscape:highlight-color="#3537f3" />
  <g
     inkscape:label="CUT"
     inkscape:groupmode="layer"
     id="layer1"
     inkscape:highlight-color="#000000">
    <path
       style="fill:none;stroke:#000000;stroke-width:0.0254"
       d="M 111.125,44.45 V 38.1 h -3.175 v -6.35 h 3.175 V 25.4 h -3.175 v -6.35 h 3.175 V 12.7 H 107.95 V 6.3500002 h 3.175 v 3.175 h 3.175 v -3.175 h 6.35 v 3.175 h -3.175 V 12.7 h 3.175 v 6.35 h -3.175 v 6.35 h 3.175 v 6.35 h -3.175 v 6.35 h 3.175 v 3.175 h -6.35 v 3.175 z"
       id="path113" />
    <path
       style="fill:none;stroke:#000000;stroke-width:0.0254"
       d="M 142.875,44.45 V 38.1 H 139.7 v -6.35 h 3.175 V 25.4 H 139.7 v -6.35 h 3.175 V 12.7 H 139.7 V 6.3499997 h 3.175 v 3.175 h 3.175 v -3.175 h 6.35 v 3.175 h -3.175 V 12.7 h 3.175 v 6.35 h -3.175 v 6.35 h 3.175 v 6.35 h -3.175 v 6.35 h 3.175 v 3.175 h -6.35 v 3.175 z"
       id="path113-3" />
    <path
       style="fill:none;stroke:#000000;stroke-width:0.0254"
       d="M 95.25,44.45 V 38.1 H 92.075 V 31.75 H 95.25 V 25.4 H 92.075 V 19.05 H 95.25 V 12.7 H 92.075 V 6.35 h 3.175 v 3.175 h 3.175 V 6.35 h 6.35 V 9.525 H 101.6 V 12.7 h 3.175 v 6.35 H 101.6 v 6.35 h 3.175 v 6.35 H 101.6 v 6.35 h 3.175 v 3.175 h -6.35 v 3.175 z"
       id="path113-3-8" />
    <path
       style="fill:none;stroke:#000000;stroke-width:0.0254"
       d="M 127,44.45 V 38.1 h -3.175 V 31.75 H 127 V 25.4 h -3.175 V 19.05 H 127 V 12.7 h -3.175 V 6.35 H 127 v 3.175 h 3.175 V 6.35 h 6.35 V 9.525 H 133.35 V 12.7 h 3.175 v 6.35 h -3.175 v 6.35 h 3.175 v 6.35 h -3.175 v 6.35 h 3.175 v 3.175 h -6.35 v 3.175 z"
       id="path113-3-8-2" />
    <path
       style="fill:none;stroke:#000000;stroke-width:0.0254"
       d="m 9.5123,6.3627184 v 6.3500036 h -3.175 v 6.350002 h 3.175 v 6.350004 h -3.175 v 6.35 h 3.175 v 6.35 h -3.175 v 3.175 h 6.35 v 3.175 h 6.350001 v -3.175 h 6.35 v 3.175 h 6.35 v -3.175 h 6.35 v 3.175 h 3.175 v -6.35 h 3.175 v -6.35 h -3.175 v -6.35 h 3.175 v -6.350004 h -3.175 v -6.350002 h 3.175 V 9.5377204 h -6.35 v -3.175002 h -6.35 v 3.175002 h -6.35 v -3.175002 h -6.35 v 3.175002 H 12.6873 v -3.175002 z"
       id="path8425" />
    <path
       style="fill:none;stroke:#000000;stroke-width:0.0254"
       d="m 15.862301,12.712722 v 6.350002 H 12.6873 v 6.350004 h 3.175001 v 6.35 H 12.6873 v 3.175 h 6.350001 v 3.175 h 6.35 v -3.175 h 6.35 v 3.175 h 3.175 v -3.175 0 -3.175 h 3.175 v -6.35 h -3.175 v -6.350004 h 3.175 v -3.175002 h -6.35 v -3.175 h -6.35 v 3.175 h -6.35 v -3.175 z"
       id="path8433" />
    <path
       style="fill:none;stroke:#000000;stroke-width:0.0254"
       d="m 53.9623,6.3627164 v 6.3500006 h -3.175 v 6.350007 h 3.175 v 6.350004 h -3.175 v 6.35 h 3.175 v 6.35 h -3.175 v 3.175 h 6.35 v 3.175 h 6.35 v -3.175 h 6.35 v 3.175 h 6.35 v -3.175 h 6.35 v 3.175 h 3.175 v -6.35 h 3.175 v -6.35 h -3.175 v -6.35 h 3.175 v -6.350004 h -3.175 v -6.350007 h 3.175 V 9.5377154 h -6.35 v -3.174999 h -6.35 v 3.174999 h -6.35 v -3.174999 h -6.35 v 3.174999 h -6.35 v -3.174999 z"
       id="path8425-9" />
    <path
       style="fill:none;stroke:#000000;stroke-width:0.0254"
       d="m 60.3123,12.712717 v 6.350007 h -3.175 v 6.350004 h 3.175 v 6.35 h -3.175 v 3.175 h 6.35 v 3.175 h 6.35 v -3.175 h 6.35 v 3.175 h 3.175 v -3.175 0 -3.175 h 3.175 v -6.35 h -3.175 v -6.350004 h 3.175 v -3.175002 h -6.35 v -3.175005 h -6.35 v 3.175005 h -6.35 v -3.175005 z"
       id="path8433-5" />
    <path
       style="fill:none;stroke:#000000;stroke-width:0.0254"
       d="m 12.699998,53.975018 v -6.35 h 3.175 v 3.175 h 6.35 v -3.175 h 6.350001 v 3.175 h 3.175 v 0 h 3.175 v 3.175 h -3.175 v 6.35 h -3.175 v -3.175 h -6.350001 v 3.175 h -6.35 v -3.175 H 9.525 v -3.175 z"
       id="path8652" />
    <path
       style="fill:none;stroke:#000000;stroke-width:0.0254"
       d="m 41.274996,53.975016 v -6.35 h 3.175 v 3.175 H 50.8 v -3.175 h 6.35 v 3.175 h 3.175 v 0 H 63.5 v 3.175 h -3.175 v 6.35 H 57.15 v -3.175 H 50.8 v 3.175 h -6.350004 v -3.175 h -6.35 v -3.175 z"
       id="path8652-7" />
    <path
       style="fill:none;stroke:#000000;stroke-width:0.0254"
       d="m 69.84999,53.975016 v -6.35 h 3.175 v 3.175 h 6.35 v -3.175 h 6.35 v 3.175 h 3.175 v 0 h 3.175 v 3.175 h -3.175 v 6.35 h -3.175 v -3.175 h -6.35 v 3.175 h -6.35 v -3.175 h -6.35 v -3.175 z"
       id="path8652-7-0" />
    <path
       style="fill:none;stroke:#000000;stroke-width:0.0254"
       d="m 98.425,53.975016 v -6.35 h 3.17501 v 3.175 h 6.35002 v -3.175 h 6.35004 v 3.175 h 3.17502 v 0 h 3.17501 v 3.175 h -3.17501 v 6.35 h -3.17502 v -3.175 h -6.35004 v 3.175 h -6.35002 v -3.175 H 95.25 v -3.175 z"
       id="path8652-7-0-7" />
  </g>
  <inkscape:templateinfo>
    <inkscape:name>Template from eletronics guide</inkscape:name>
    <inkscape:date>2023-10-16</inkscape:date>
  </inkscape:templateinfo>
</svg>
