<?xml version="1.0" encoding="UTF-8" standalone="no"?>
<!-- Created with Inkscape (http://www.inkscape.org/) -->

<svg
   width="20in"
   height="12in"
   viewBox="0 0 508.00001 304.8"
   version="1.1"
   id="svg1"
   inkscape:version="1.3 (0e150ed, 2023-07-21)"
   sodipodi:docname="interface_elements.svg"
   xmlns:inkscape="http://www.inkscape.org/namespaces/inkscape"
   xmlns:sodipodi="http://sodipodi.sourceforge.net/DTD/sodipodi-0.dtd"
   xmlns="http://www.w3.org/2000/svg"
   xmlns:svg="http://www.w3.org/2000/svg">
  <sodipodi:namedview
     id="namedview1"
     pagecolor="#ffffff"
     bordercolor="#000000"
     borderopacity="0.25"
     inkscape:showpageshadow="2"
     inkscape:pageopacity="0.0"
     inkscape:pagecheckerboard="0"
     inkscape:deskcolor="#d1d1d1"
     inkscape:document-units="in"
     showgrid="true"
     inkscape:zoom="1.1789508"
     inkscape:cx="97.544359"
     inkscape:cy="74.218534"
     inkscape:window-width="1352"
     inkscape:window-height="764"
     inkscape:window-x="0"
     inkscape:window-y="35"
     inkscape:window-maximized="0"
     inkscape:current-layer="svg1">
    <inkscape:grid
       id="grid1"
       units="in"
       originx="0"
       originy="0"
       spacingx="3.175"
       spacingy="3.175"
       empcolor="#e5bf00"
       empopacity="0.14901961"
       color="#e5bf00"
       opacity="0.10196078"
       empspacing="8"
       dotted="false"
       gridanglex="30"
       gridanglez="30"
       visible="true" />
  </sodipodi:namedview>
  <defs
     id="defs1" />
  <path
     style="fill:none;stroke:#625366;stroke-width:0.254;stroke-dasharray:none"
     d="m 19.05,11.172902 a 8.001001,8.001001 0 0 1 -16.0020011,0 8.001001,8.001001 0 0 1 16.0020011,0 z"
     id="path5" />
  <path
     id="path4"
     style="fill:none;stroke:#625366;stroke-width:0.254;stroke-dasharray:none"
     d="m 52.781056,12.652254 h 2.54 v 1.620354 h -2.54 z m 1.177407,-9.4607176 a 3.1750005,3.1750005 0 0 1 0,6.350001 3.1750005,3.1750005 0 0 1 0,-6.350001 z" />
  <path
     id="path2"
     style="fill:none;stroke:#625366;stroke-width:0.254;stroke-dasharray:none"
     d="m 34.924999,3.1915366 a 3.6830007,3.6830007 0 0 1 0,7.3660014 3.6830007,3.6830007 0 0 1 0,-7.3660014 z M 33.060717,14.450749 h 3.175 v 1.841312 h -3.175 z" />
</svg>
