<?xml version="1.0" encoding="UTF-8" standalone="no"?>
<!-- Created with Inkscape (http://www.inkscape.org/) -->

<svg
   width="20in"
   height="12in"
   viewBox="0 0 508.00001 304.8"
   version="1.1"
   id="svg1"
   inkscape:version="1.3 (0e150ed, 2023-07-21)"
   sodipodi:docname="box.svg"
   xmlns:inkscape="http://www.inkscape.org/namespaces/inkscape"
   xmlns:sodipodi="http://sodipodi.sourceforge.net/DTD/sodipodi-0.dtd"
   xmlns="http://www.w3.org/2000/svg"
   xmlns:svg="http://www.w3.org/2000/svg">
  <sodipodi:namedview
     id="namedview1"
     pagecolor="#ffffff"
     bordercolor="#000000"
     borderopacity="0.25"
     inkscape:showpageshadow="2"
     inkscape:pageopacity="0.0"
     inkscape:pagecheckerboard="0"
     inkscape:deskcolor="#d1d1d1"
     inkscape:document-units="in"
     showgrid="true"
     inkscape:zoom="2.32"
     inkscape:cx="236.42241"
     inkscape:cy="294.61207"
     inkscape:window-width="1352"
     inkscape:window-height="764"
     inkscape:window-x="0"
     inkscape:window-y="35"
     inkscape:window-maximized="0"
     inkscape:current-layer="svg1">
    <inkscape:grid
       id="grid1"
       units="in"
       originx="0"
       originy="0"
       spacingx="3.175"
       spacingy="3.175"
       empcolor="#e5bf00"
       empopacity="0.10196078"
       color="#e5bf00"
       opacity="0.05098039"
       empspacing="8"
       dotted="false"
       gridanglex="30"
       gridanglez="30"
       visible="true"
       snapvisiblegridlinesonly="true" />
  </sodipodi:namedview>
  <defs
     id="defs1" />
  <g
     inkscape:groupmode="layer"
     id="layer2"
     inkscape:label="CUT">
    <path
       id="path28"
       style="fill:none;fill-opacity:1;stroke:#000000;stroke-width:0.0254;stroke-dasharray:none;stroke-opacity:1"
       d="m 31.750001,76.200002 h -3.175 m 3.175,0 v 3.175 h 6.35 v -3.175 h 6.349997 v 3.175 h 6.350001 v -3.175 h 6.35 v 3.175 h 6.35 v -3.175 h 6.35 v 3.175 h 6.35 v 3.175 h -3.175 V 88.9 h 3.175 v 6.35 h -3.175 v 6.35 h -3.175 v -3.175 h -6.35 v 3.175 h -6.35 v -3.175 h -6.35 v 3.175 h -6.350001 v -3.175 h -6.349997 v 3.175 h -6.35 V 98.425 H 25.4 V 95.25 h 3.175001 V 88.9 H 25.4 v -6.349998 h 3.175001 v -6.35" />
    <path
       id="path28-9"
       style="fill:none;fill-opacity:1;stroke:#000000;stroke-width:0.0254;stroke-dasharray:none;stroke-opacity:1"
       d="m 31.75,104.775 h -3.175 m 3.175,0 v 3.175 h 6.35 v -3.175 h 6.349997 v 3.175 h 6.350001 v -3.175 h 6.35 v 3.175 h 6.35 v -3.175 h 6.35 v 3.175 h 6.35 v 3.175 h -3.175 v 6.35 h 3.175 v 6.35 h -3.175 v 6.35 h -3.175 V 127 h -6.35 v 3.175 h -6.35 V 127 h -6.35 v 3.175 H 44.449997 V 127 H 38.1 v 3.175 H 31.75 V 127 h -6.350001 v -3.175 H 28.575 v -6.35 h -3.175001 v -6.35 H 28.575 v -6.35" />
    <path
       id="path28-4"
       style="fill:none;fill-opacity:1;stroke:#000000;stroke-width:0.0254;stroke-dasharray:none;stroke-opacity:1"
       d="m 31.750001,133.35 h -3.175 m 3.175,0 v 3.175 h 6.35 v -3.175 h 6.349997 v 3.175 h 6.350001 v -3.175 h 6.35 v 3.175 h 6.35 v -3.175 h 6.35 v 3.175 H 76.2 v 3.175 h -3.175001 v 6.35 H 76.2 v 6.35 h -3.175001 v 6.35 h -3.175 v -3.175 h -6.35 v 3.175 h -6.35 v -3.175 h -6.35 v 3.175 h -6.350001 v -3.175 h -6.349997 v 3.175 h -6.35 v -3.175 H 25.4 V 152.4 h 3.175001 v -6.35 H 25.4 v -6.35 h 3.175001 v -6.35" />
    <path
       id="path28-0"
       style="fill:none;fill-opacity:1;stroke:#000000;stroke-width:0.0254;stroke-dasharray:none;stroke-opacity:1"
       d="m 31.750001,47.625 h -3.175 m 3.175,0 V 50.8 h 6.35 v -3.175 h 6.349997 V 50.8 h 6.350001 v -3.175 h 6.35 V 50.8 h 6.35 v -3.175 h 6.35 V 50.8 h 6.35 v 3.175 h -3.175 v 6.349998 h 3.175 v 6.35 h -3.175 v 6.35 h -3.175 v -3.175 h -6.35 v 3.175 h -6.35 v -3.175 h -6.35 v 3.175 h -6.350001 v -3.175 h -6.349997 v 3.175 h -6.35 v -3.175 H 25.4 v -3.175 h 3.175001 v -6.35 H 25.4 V 53.975 h 3.175001 v -6.35" />
    <path
       style="fill:none;stroke:#000000;stroke-width:0.0254"
       d="m 79.374999,47.625001 v 3.175 h 3.175 v 3.175 h -3.175 v 6.350001 h 3.175 v 6.35 h -3.175 v 6.35 h 3.175 v -3.175 H 85.725 v 3.175 h 6.35 v -3.175 h 6.35 v 3.175 h 6.35 v -3.175 H 101.6 v -3.175 h 3.175 v -6.35 H 101.6 v -6.350001 h 3.175 v -6.35 H 101.6 v 3.175 h -3.175 v -3.175 h -6.35 v 3.175 h -6.35 v -3.175 z"
       id="path1" />
    <path
       style="fill:none;stroke:#000000;stroke-width:0.0254"
       d="m 79.375,76.199998 v 3.175 h 3.175 v 3.175 h -3.175 v 6.350001 h 3.175 v 6.35 H 79.375 V 101.6 h 3.175 v -3.175001 h 3.174998 V 101.6 h 6.35 v -3.175001 h 6.35 V 101.6 H 104.775 V 98.424999 H 101.6 v -3.175 h 3.175 v -6.35 H 101.6 v -6.350001 h 3.175 v -6.35 H 101.6 v 3.175 h -3.175002 v -3.175 h -6.35 v 3.175 h -6.35 v -3.175 z"
       id="path1-4" />
  </g>
</svg>
